<svg width="34" height="34" viewBox="0 0 34 34" fill="none" xmlns="http://www.w3.org/2000/svg">
<path d="M30.2503 0.5C31.2228 0.5 32.1554 0.886308 32.8431 1.57394C33.5307 2.26157 33.917 3.19421 33.917 4.16667V29.8333C33.917 30.8058 33.5307 31.7384 32.8431 32.4261C32.1554 33.1137 31.2228 33.5 30.2503 33.5H4.58366C3.6112 33.5 2.67857 33.1137 1.99093 32.4261C1.3033 31.7384 0.916992 30.8058 0.916992 29.8333V4.16667C0.916992 3.19421 1.3033 2.26157 1.99093 1.57394C2.67857 0.886308 3.6112 0.5 4.58366 0.5H30.2503ZM29.3337 28.9167V19.2C29.3337 17.6149 28.704 16.0947 27.5831 14.9739C26.4623 13.853 24.9421 13.2233 23.357 13.2233C21.7987 13.2233 19.9837 14.1767 19.1037 15.6067V13.5717H13.9887V28.9167H19.1037V19.8783C19.1037 18.4667 20.2403 17.3117 21.652 17.3117C22.3327 17.3117 22.9856 17.5821 23.4669 18.0634C23.9482 18.5448 24.2187 19.1976 24.2187 19.8783V28.9167H29.3337ZM8.03033 10.6933C8.84719 10.6933 9.6306 10.3688 10.2082 9.79122C10.7858 9.21361 11.1103 8.4302 11.1103 7.61333C11.1103 5.90833 9.73533 4.515 8.03033 4.515C7.2086 4.515 6.42052 4.84143 5.83947 5.42248C5.25842 6.00353 4.93199 6.7916 4.93199 7.61333C4.93199 9.31833 6.32533 10.6933 8.03033 10.6933ZM10.5787 28.9167V13.5717H5.50033V28.9167H10.5787Z" fill="#ABB2BF"/>
</svg>
