<svg width="57" height="57" viewBox="0 0 57 57" fill="none" xmlns="http://www.w3.org/2000/svg">
<path d="M49.875 8.3125H47.5C47.1851 8.3125 46.883 8.43761 46.6603 8.66031C46.4376 8.88301 46.3125 9.18506 46.3125 9.5V42.75C46.3114 43.6945 45.9358 44.6 45.2679 45.2679C44.6 45.9358 43.6945 46.3114 42.75 46.3125H9.5C9.18506 46.3125 8.88301 46.4376 8.66031 46.6603C8.43761 46.883 8.3125 47.1851 8.3125 47.5V49.875C8.31395 51.4493 8.93997 52.9587 10.0532 54.0718C11.1663 55.185 12.6757 55.8111 14.25 55.8125H49.875C51.4493 55.8111 52.9587 55.185 54.0718 54.0718C55.185 52.9587 55.8111 51.4493 55.8125 49.875V14.25C55.8111 12.6757 55.185 11.1663 54.0718 10.0532C52.9587 8.93997 51.4493 8.31395 49.875 8.3125ZM53.4375 49.875C53.4364 50.8195 53.0607 51.725 52.3929 52.3929C51.725 53.0607 50.8195 53.4364 49.875 53.4375H14.25C13.3055 53.4364 12.4 53.0607 11.7321 52.3929C11.0642 51.725 10.6886 50.8195 10.6875 49.875V48.6875H42.75C44.3243 48.6861 45.8337 48.06 46.9468 46.9468C48.06 45.8337 48.6861 44.3243 48.6875 42.75V10.6875H49.875C50.8195 10.6886 51.725 11.0642 52.3929 11.7321C53.0607 12.4 53.4364 13.3055 53.4375 14.25V49.875Z" fill="#020C18"/>
<path d="M42.75 1.1875H7.125C5.55072 1.18895 4.04133 1.81497 2.92815 2.92815C1.81497 4.04133 1.18895 5.55072 1.1875 7.125V42.75C1.18895 44.3243 1.81497 45.8337 2.92815 46.9468C4.04133 48.06 5.55072 48.6861 7.125 48.6875H42.75C44.3243 48.6861 45.8337 48.06 46.9468 46.9468C48.06 45.8337 48.6861 44.3243 48.6875 42.75V7.125C48.6861 5.55072 48.06 4.04133 46.9468 2.92815C45.8337 1.81497 44.3243 1.18895 42.75 1.1875ZM46.3125 42.75C46.3114 43.6945 45.9357 44.6 45.2679 45.2679C44.6 45.9357 43.6945 46.3114 42.75 46.3125H7.125C6.18049 46.3114 5.27498 45.9357 4.60711 45.2679C3.93925 44.6 3.56357 43.6945 3.5625 42.75V7.125C3.56357 6.18049 3.93925 5.27498 4.60711 4.60711C5.27498 3.93925 6.18049 3.56357 7.125 3.5625H42.75C43.6945 3.56357 44.6 3.93925 45.2679 4.60711C45.9357 5.27498 46.3114 6.18049 46.3125 7.125V42.75Z" fill="#020C18"/>
<path d="M35.2401 27.57H35.2377C34.9909 27.2682 34.6789 27.0262 34.3251 26.8623C33.9713 26.6984 33.585 26.6169 33.1952 26.6238H33.1928C32.8032 26.6171 32.4172 26.6987 32.0637 26.8626C31.7102 27.0265 31.3984 27.2683 31.1517 27.57L28.0229 31.5034L28.953 32.2435L27.6543 31.5034L19.3991 21.1337C19.124 20.7975 18.769 20.5357 18.3665 20.3724C17.9639 20.2091 17.5268 20.1496 17.0953 20.1991C16.6797 20.2292 16.2782 20.3624 15.9271 20.5867C15.576 20.8111 15.2864 21.1195 15.0846 21.484L6.19026 38.2435C6.01464 38.5727 5.92804 38.9422 5.93904 39.3152C5.95004 39.6882 6.05825 40.0519 6.25296 40.3703C6.48881 40.7419 6.81615 41.0467 7.20362 41.2554C7.59109 41.4642 8.02568 41.5699 8.46575 41.5625H41.4094C41.8859 41.5763 42.3565 41.4541 42.766 41.2101C43.1756 40.9662 43.5071 40.6106 43.7219 40.185C43.9028 39.8174 43.9737 39.4053 43.9259 38.9984C43.8782 38.5915 43.7139 38.207 43.4528 37.8912L35.2401 27.57ZM41.4094 39.1875H8.46575L8.28929 39.3538L17.1718 22.61L17.5404 22.6124L25.7926 32.9809C26.0387 33.2833 26.3503 33.5258 26.7038 33.6901C27.0573 33.8544 27.4436 33.9363 27.8334 33.9295C28.2236 33.9362 28.6127 33.8546 28.9669 33.6907C29.3212 33.5268 29.6338 33.285 29.8814 32.9833L33.199 28.9988C33.264 28.9954 33.3284 29.0132 33.3823 29.0496L41.5951 39.3706L41.4094 39.1875Z" fill="#020C18"/>
<path d="M30.875 8.3125C29.7007 8.3125 28.5527 8.66073 27.5763 9.31315C26.5999 9.96557 25.8389 10.8929 25.3895 11.9778C24.9401 13.0628 24.8225 14.2566 25.0516 15.4083C25.2807 16.5601 25.8462 17.6181 26.6766 18.4484C27.5069 19.2788 28.5649 19.8443 29.7167 20.0734C30.8684 20.3025 32.0623 20.1849 33.1472 19.7355C34.2321 19.2861 35.1594 18.5251 35.8119 17.5487C36.4643 16.5723 36.8125 15.4243 36.8125 14.25C36.8111 12.6757 36.185 11.1663 35.0719 10.0532C33.9587 8.93997 32.4493 8.31395 30.875 8.3125ZM30.875 17.8125C30.1704 17.8125 29.4816 17.6036 28.8958 17.2121C28.3099 16.8207 27.8533 16.2643 27.5837 15.6133C27.314 14.9623 27.2435 14.246 27.381 13.555C27.5184 12.8639 27.8577 12.2292 28.3559 11.7309C28.8542 11.2327 29.4889 10.8934 30.18 10.756C30.8711 10.6185 31.5874 10.689 32.2383 10.9587C32.8893 11.2283 33.4457 11.6849 33.8371 12.2708C34.2286 12.8566 34.4375 13.5454 34.4375 14.25C34.4364 15.1945 34.0608 16.1 33.3929 16.7679C32.725 17.4358 31.8195 17.8114 30.875 17.8125Z" fill="#020C18"/>
</svg>
